Coordinates
version=1
nRows=22
nColumns=24
inDegrees=yes

Units are S.I. units (second, meters, Newtons, ...)
Angles are in degrees.

endheader
time	pelvis_tilt	pelvis_list	pelvis_rotation	pelvis_tx	pelvis_ty	pelvis_tz	hip_flexion_r	hip_adduction_r	hip_rotation_r	knee_angle_r	ankle_angle_r	subtalar_angle_r	mtp_angle_r	hip_flexion_l	hip_adduction_l	hip_rotation_l	knee_angle_l	ankle_angle_l	subtalar_angle_l	mtp_angle_l	lumbar_extension	lumbar_bending	lumbar_rotation
      3.99500000	    -14.73001373	      1.56149700	     -5.85492043	     -0.31101254	     -0.02724873	      0.01811979	     -0.06518670	      0.61635899	      2.24717188	    -10.37789029	      5.33518446	      9.65337506	     15.14872499	     38.48072914	     -2.30895321	    -16.39822214	     -6.44699871	    -12.21475159	     11.50487981	     15.35023707	     11.76808817	     -1.87403012	      8.66304147
      4.00000000	    -14.70596991	      1.55451411	     -6.02825582	     -0.30486643	     -0.02787801	      0.01797792	     -0.23644588	      0.53542311	      2.32054455	    -10.75602169	      5.21424338	      9.94888180	     15.31425018	     38.53160226	     -2.42312600	    -16.45398249	     -7.22400482	    -12.07080280	     11.37575717	     15.34948781	     11.76047085	     -1.90130114	      8.76119373
      4.00500000	    -14.69482872	      1.56447882	     -6.21119908	     -0.29869675	     -0.02848465	      0.01780348	     -0.37304070	      0.42637018	      2.37844818	    -11.16397589	      5.09358849	     10.34661043	     15.50651069	     38.56391199	     -2.52314712	    -16.58139616	     -7.97539987	    -11.95074283	     11.31337966	     15.32898650	     11.76740299	     -1.93550675	      8.88688772
      4.01000000	    -14.69458530	      1.60820411	     -6.40371796	     -0.29239281	     -0.02908883	      0.01764417	     -0.48392616	      0.27440660	      2.36624401	    -11.59654767	      4.96334581	     10.82310417	     15.75582633	     38.56140228	     -2.59641456	    -16.77739725	     -8.68013503	    -11.80129200	     11.34934589	     15.31296705	     11.80958861	     -2.00623165	      9.01329742
      4.01500000	    -14.69482684	      1.67757547	     -6.58132710	     -0.28598594	     -0.02966410	      0.01745293	     -0.58233520	      0.08684466	      2.31328442	    -12.05020890	      4.80450369	     11.33482712	     16.07639843	     38.51903632	     -2.63137540	    -17.03195914	     -9.32496309	    -11.67415078	     11.46428492	     15.32271032	     11.86479438	     -2.10649485	      9.11676791
      4.02000000	    -14.69095673	      1.73284577	     -6.77622815	     -0.27959243	     -0.03018005	      0.01725890	     -0.67491467	     -0.08627037	      2.30650495	    -12.51312557	      4.59795926	     11.80908620	     16.34025436	     38.44020889	     -2.68272456	    -17.26566069	     -9.90913345	    -11.63072143	     11.52517033	     15.39332717	     11.90896705	     -2.18598828	      9.25321746
      4.02500000	    -14.70132849	      1.84259504	     -6.95606564	     -0.27309043	     -0.03066406	      0.01708685	     -0.73312302	     -0.32305257	      2.21574974	    -13.00238761	      4.37450897	     12.34687570	     16.68004747	     38.34307829	     -2.67653929	    -17.58010277	    -10.41419816	    -11.69681709	     11.62294468	     15.52854551	     11.99298072	     -2.33312895	      9.33844182
      4.03000000	    -14.71856776	      1.94397280	     -7.18170145	     -0.26664878	     -0.03105898	      0.01689813	     -0.74381131	     -0.55717437	      2.18031504	    -13.54201214	      4.09749826	     12.92685843	     16.97287650	     38.21670533	     -2.69531013	    -17.85983233	    -10.82769188	    -11.88140755	     11.62367527	     15.68039526	     12.07202988	     -2.44418219	      9.51679962
      4.03500000	    -14.75246439	      2.09328224	     -7.39008438	     -0.26014395	     -0.03142753	      0.01670200	     -0.71507900	     -0.84724704	      2.08975400	    -14.11020009	      3.81444029	     13.54810018	     17.27622844	     38.10220733	     -2.65901222	    -18.18545361	    -11.18978153	    -12.18929711	     11.53012270	     15.87385722	     12.18438818	     -2.61284033	      9.66577309
      4.04000000	    -14.76779634	      2.26160311	     -7.49955585	     -0.25355876	     -0.03172649	      0.01639043	     -0.70370125	     -1.17722946	      1.78138161	    -14.67659032	      3.43879944	     14.25392679	     17.83615805	     37.95963430	     -2.53167003	    -18.44273897	    -11.45214483	    -12.74098859	     11.25125809	     16.34197726	     12.28419037	     -2.83496189	      9.69889018
      4.04500000	    -14.83273176	      2.45629752	     -7.76001966	     -0.24714803	     -0.03192645	      0.01626822	     -0.56432124	     -1.50583538	      1.83391176	    -15.33190210	      3.06496664	     14.78156481	     18.05722757	     37.86229017	     -2.48112628	    -18.72314600	    -11.71657941	    -13.24238445	     10.87590590	     16.36980441	     12.43040102	     -3.03442635	      9.92073269
      4.05000000	    -14.88479043	      2.67532701	     -7.85517262	     -0.24059182	     -0.03209664	      0.01590550	     -0.43844431	     -1.90212387	      1.45365634	    -15.99977668	      2.61555306	     15.58372341	     18.53908917	     37.76673006	     -2.28383482	    -18.83019870	    -11.92154018	    -13.97533487	     10.16591566	     16.66394114	     12.57392693	     -3.30379745	      9.94740336
      4.05500000	    -14.95782514	      2.93668513	     -8.11383229	     -0.23418646	     -0.03213976	      0.01581743	     -0.21638462	     -2.30598822	      1.47940646	    -16.74035007	      2.14726612	     16.12581630	     18.75795989	     37.69497620	     -2.16534829	    -19.02595011	    -12.17592218	    -14.56505672	      9.48960349	     16.54582542	     12.74338479	     -3.57689040	     10.16115643
      4.06000000	    -15.02786235	      3.18171324	     -8.15810820	     -0.22767550	     -0.03219123	      0.01536475	     -0.00799028	     -2.73998535	      1.05262304	    -17.49348501	      1.58823555	     16.92407460	     19.23731038	     37.65864702	     -1.89168280	    -18.84627801	    -12.44281806	    -15.28703494	      8.36097541	     16.43160836	     12.89921262	     -3.88569261	     10.13333398
      4.06500000	    -15.10549583	      3.45399410	     -8.29929554	     -0.22121826	     -0.03215454	      0.01507915	      0.26758492	     -3.18748638	      0.81239125	    -18.30545147	      0.96198301	     17.59049450	     19.66951853	     37.63643607	     -1.65565690	    -18.67316487	    -12.77187694	    -15.86028084	      7.22147376	     16.03162166	     13.07120868	     -4.19766039	     10.21595824
      4.07000000	    -15.17786291	      3.69504944	     -8.41727308	     -0.21477371	     -0.03206645	      0.01471087	      0.56374415	     -3.61769376	      0.50118998	    -19.15094298	      0.22135152	     18.29907781	     20.17575253	     37.62976699	     -1.41501387	    -18.30987581	    -13.17176971	    -16.30816994	      5.97041451	     15.40109571	     13.22836800	     -4.47617729	     10.27022987
      4.07500000	    -15.25796686	      3.94783030	     -8.51972821	     -0.20833144	     -0.03196484	      0.01432733	      0.90911921	     -4.06743900	      0.15260902	    -20.05379442	     -0.58834549	     18.99031491	     20.71691884	     37.64725038	     -1.14348219	    -17.84360617	    -13.62420087	    -16.64187390	      4.70033563	     14.59946024	     13.39292977	     -4.77147969	     10.30566792
      4.08000000	    -15.34037996	      4.18811223	     -8.60217260	     -0.20189540	     -0.03184805	      0.01390916	      1.29335045	     -4.51689344	     -0.25136663	    -21.00754281	     -1.49897192	     19.68527756	     21.31744095	     37.67720640	     -0.85964095	    -17.28000936	    -14.11594171	    -16.85033974	      3.46390521	     13.70089599	     13.55279287	     -5.05822467	     10.31261072
      4.08500000	    -15.42522101	      4.41259577	     -8.66730083	     -0.19548064	     -0.03172254	      0.01344508	      1.71987785	     -4.96545380	     -0.71442785	    -22.01327343	     -2.52681659	     20.37110940	     22.01145356	     37.71414710	     -0.57017107	    -16.66343590	    -14.62922604	    -16.93227602	      2.32139661	     12.77044366	     13.70586346	     -5.33001326	     10.29597127
      4.09000000	    -15.51135586	      4.62010341	     -8.71928773	     -0.18908379	     -0.03158234	      0.01294890	      2.18705267	     -5.41328286	     -1.23312506	    -23.06376016	     -3.69650675	     21.02500282	     22.85510573	     37.74911432	     -0.28281005	    -16.03652577	    -15.14792913	    -16.88613333	      1.32155540	     11.85666781	     13.85064887	     -5.58449384	     10.26126436
      4.09500000	    -15.60239916	      4.81932477	     -8.76586689	     -0.18272981	     -0.03143430	      0.01243129	      2.70999011	     -5.87104086	     -1.80085930	    -24.17375447	     -5.00005680	     21.64603357	     23.80007710	     37.78026940	      0.00026099	    -15.45648676	    -15.65008486	    -16.74420645	      0.47064446	     11.03544091	     13.98775817	     -5.83048399	     10.21939886
      4.10000000	    -15.70015549	      5.01641884	     -8.80238396	     -0.17641050	     -0.03128500	      0.01188401	      3.29162851	     -6.35015726	     -2.42747695	    -25.34370145	     -6.44478896	     22.24391232	     24.83686821	     37.80590000	      0.28226598	    -14.95622314	    -16.12821548	    -16.51616226	     -0.20417647	     10.32171162	     14.12612399	     -6.07386167	     10.16885519
